<svg xmlns="http://www.w3.org/2000/svg" viewBox="0 0 24 24">
  <path fill="#AEBBFF" d="M20.32 4.37A19.79 19.79 0 0 0 15.36 2c-.21.38-.46.89-.63 1.29a18.27 18.27 0 0 0-5.47 0A12.6 12.6 0 0 0 8.63 2a19.74 19.74 0 0 0-4.96 2.38C.54 9.09-.31 13.68.11 18.2a19.9 19.9 0 0 0 6.08 3.08c.49-.67.93-1.38 1.3-2.13-.72-.27-1.41-.61-2.06-1.01.17-.13.34-.26.5-.4a14.17 14.17 0 0 0 12.14 0c.16.14.33.27.5.4-.65.4-1.34.74-2.06 1.01.38.75.81 1.46 1.3 2.13a19.86 19.86 0 0 0 6.09-3.08c.5-5.24-.84-9.79-3.58-13.83ZM8.02 15.41c-1.19 0-2.16-1.09-2.16-2.43s.95-2.43 2.16-2.43c1.21 0 2.18 1.1 2.16 2.43 0 1.34-.95 2.43-2.16 2.43Zm7.96 0c-1.19 0-2.16-1.09-2.16-2.43s.95-2.43 2.16-2.43c1.21 0 2.18 1.1 2.16 2.43 0 1.34-.95 2.43-2.16 2.43Z"/>
</svg>
