<svg xmlns="http://www.w3.org/2000/svg" width="64" height="64" viewBox="0 0 64 64">
  <rect width="64" height="64" rx="16" fill="#1a1d22"/>
  <path d="M16 24c0-3.314 2.686-6 6-6h17c3.314 0 6 2.686 6 6v1h4c4.971 0 9 4.029 9 9s-4.029 9-9 9h-4.768C42.58 47.66 38.613 51 33.84 51H28.16c-6.085 0-11.257-4.416-12.213-10.425L16 40V24z" fill="#ffffff"/>
  <path d="M45 31v6h4c1.657 0 3-1.343 3-3s-1.343-3-3-3h-4z" fill="#f26b3a"/>
  <path d="M31.996 28.233c1.846-2.689 6.073-1.552 6.318 1.739.142 1.917-.898 3.718-2.392 5.027L32 38.4l-3.922-3.401c-1.494-1.309-2.534-3.11-2.392-5.027.245-3.291 4.472-4.428 6.31-1.739z" fill="#f26b3a"/>
</svg>